# xmcd
#
# Track frame offsets:
#	150
#	13130
#	31012
#	47403
#	61982
#	78964
#	94383
#	109184
#	125668
#	141747
#	158459
#	177772
#	193980
#	210962
#	228100
#	243141
#	278807
#
# Disc length: 3723 seconds
#
# Revision: 1
# Processed by: cddbd v1.5.2PL0 Copyright (c) Steve Scherf et al.
# Submitted via: audiograbber 1.82.02
#
DISCID=de0e8911
DTITLE=Chartbuster Karaoke - Country 5145-03
DYEAR=2011
DGENRE=Country
TTITLE0=Carrie Underwood - Songs Like This
TTITLE1=Justin Moore - If Heaven Wasn't So Far Away
TTITLE2=Lee Brice - Beautiful Every Time
TTITLE3=Jaron And The Long Road To Love - That's Beautiful To Me
TTITLE4=Sunny Sweeney - From A Table Away
TTITLE5=Trace Adkins - Brown Chicken Brown Cow
TTITLE6=Josh Kelley - Georgia Clay
TTITLE7=LoCash Cowboys - Keep In Mind
TTITLE8=Joey and Rory - That's Important To Me
TTITLE9=Chuck Wicks - Old School
TTITLE10=Randy Montana - 1,000 Faces
TTITLE11=Troy Olson - Good Hands
TTITLE12=Gretchen Wilson - I'd Love to Be Your Last
TTITLE13=Kenny Chesney - Live A Little
TTITLE14=Blake Wise - I've Got This Feeling
TTITLE15=Jamey Johnson - Heartache
TTITLE16=Data - Data Track
EXTD=
EXTT0=
EXTT1=
EXTT2=
EXTT3=
EXTT4=
EXTT5=
EXTT6=
EXTT7=
EXTT8=
EXTT9=
EXTT10=
EXTT11=
EXTT12=
EXTT13=
EXTT14=
EXTT15=
EXTT16=
PLAYORDER=
